<?xml version="1.0" encoding="utf-8"?>
<!-- Generator: Adobe Illustrator 25.0.1, SVG Export Plug-In . SVG Version: 6.00 Build 0)  -->
<svg version="1.1" id="Laag_1" xmlns="http://www.w3.org/2000/svg" xmlns:xlink="http://www.w3.org/1999/xlink" x="0px" y="0px"
	 viewBox="0 0 453.6 453.6" style="enable-background:new 0 0 453.6 453.6;" xml:space="preserve">
<style type="text/css">
	.st0{fill:#FEFEFE;}
	.st1{fill:#7908F8;}
</style>
<g>
	<path class="st0" d="M226.68,453.58c-75.19,0-150.39,0-225.58,0.02c-0.9,0-1.1-0.2-1.1-1.1C0.02,302.03,0.02,151.57,0,1.1
		C0,0.2,0.2,0,1.1,0c150.47,0.02,300.93,0.02,451.4,0c0.9,0,1.1,0.2,1.1,1.1c-0.02,150.47-0.02,300.93,0,451.4
		c0,0.9-0.2,1.1-1.1,1.1C377.23,453.58,301.95,453.58,226.68,453.58z M76.97,452.38c0.74,0,1.21,0,1.68,0
		c95.3,0,190.59,0.02,285.89-0.04c6.27,0,12.56,0.57,18.84-0.45c2.87-0.47,5.82-0.45,8.68-1c24.23-4.67,41.89-18.04,52.88-40.11
		c3.99-8.02,6.12-16.59,6.75-25.53c0.02-0.33-0.15-0.87,0.32-0.91c0.77-0.08,0.61-0.57,0.61-1.02c0-26.06,0-52.12,0.02-78.19
		c0-0.87-0.22-1.06-1.07-0.94c-10.68,1.47-21.37,2.9-32.06,4.35c-12.23,1.66-24.46,3.34-36.69,4.99
		c-12.59,1.7-25.18,3.39-37.76,5.09c-11.76,1.59-23.51,3.18-35.27,4.78c-13.47,1.83-26.93,3.66-40.4,5.5
		c-9.82,1.34-19.64,2.59-29.44,4.06c-3.3,0.5-5.71-0.43-8.03-2.76c-36.79-36.87-73.61-73.7-110.5-110.48
		c-2.36-2.36-3.14-4.9-2.88-8.08c0.75-9.16,1.41-18.32,2.08-27.49c0.68-9.28,1.33-18.57,2.01-27.85
		c0.84-11.36,1.71-22.71,2.54-34.06c0.68-9.28,1.33-18.57,2.01-27.85c0.76-10.28,1.55-20.56,2.31-30.84
		c0.68-9.24,1.33-18.49,2.01-27.73c0.84-11.36,1.69-22.71,2.57-34.06c0.08-0.98-0.12-1.27-1.16-1.27
		C112.73,0.51,92.55,0.5,72.36,0.5c-5.53,0-10.99,0.65-16.39,1.9C23.83,9.9,0.6,38.76,0.55,71.74c-0.05,30.42,0.02,60.83,0.12,91.25
		C0.9,234.1,0.74,305.22,0.74,376.33c0,0.45,0,0.91,0,1.57c0.43-0.41,0.66-0.62,0.88-0.84c10.09-10.09,20.17-20.18,30.28-30.25
		c0.7-0.7,1.02-1.37,1.01-2.38c-0.04-14.39-0.03-28.78-0.02-43.17c0-2.44,0.68-4.66,2.45-6.43c18.56-18.56,37.12-37.12,55.69-55.68
		c3.31-3.31,7.58-3.28,10.9,0.03c37.71,37.71,75.41,75.41,113.12,113.12c3.46,3.46,3.48,7.66,0.05,11.09
		c-18.43,18.42-36.88,36.84-55.29,55.28c-1.72,1.72-3.67,2.56-6.07,2.55c-14.7-0.01-29.39,0.02-44.09-0.01
		c-1.13,0-1.92,0.3-2.72,1.1c-6.39,6.46-12.82,12.87-19.24,19.3C84.19,445.14,80.68,448.66,76.97,452.38z"/>
	<path class="st1" d="M76.97,452.38c3.71-3.71,7.22-7.24,10.73-10.76c6.42-6.43,12.85-12.84,19.24-19.3c0.8-0.81,1.59-1.11,2.72-1.1
		c14.7,0.03,29.39,0,44.09,0.01c2.41,0,4.35-0.83,6.07-2.55c18.41-18.45,36.85-36.86,55.29-55.28c3.43-3.43,3.41-7.63-0.05-11.09
		c-37.71-37.71-75.41-75.41-113.12-113.12c-3.32-3.32-7.58-3.34-10.9-0.03c-18.57,18.55-37.13,37.11-55.69,55.68
		c-1.77,1.77-2.45,3.99-2.45,6.43c-0.01,14.39-0.02,28.78,0.02,43.17c0,1.01-0.31,1.68-1.01,2.38
		c-10.11,10.07-20.19,20.16-30.28,30.25c-0.22,0.22-0.45,0.43-0.88,0.84c0-0.67,0-1.12,0-1.57c0-71.11,0.16-142.22-0.07-213.34
		c-0.1-30.42-0.17-60.83-0.12-91.25C0.6,38.76,23.83,9.9,55.98,2.41c5.39-1.26,10.85-1.9,16.39-1.9c20.19,0,40.37,0.01,60.56-0.03
		c1.05,0,1.24,0.28,1.16,1.27c-0.88,11.35-1.73,22.71-2.57,34.06c-0.68,9.24-1.33,18.49-2.01,27.73
		c-0.76,10.28-1.55,20.56-2.31,30.84c-0.68,9.28-1.33,18.57-2.01,27.85c-0.84,11.36-1.71,22.71-2.54,34.06
		c-0.68,9.28-1.33,18.57-2.01,27.85c-0.67,9.16-1.33,18.33-2.08,27.49c-0.26,3.18,0.51,5.72,2.88,8.08
		c36.88,36.78,73.71,73.61,110.5,110.48c2.33,2.33,4.73,3.26,8.03,2.76c9.79-1.48,19.62-2.73,29.44-4.06
		c13.47-1.83,26.93-3.67,40.4-5.5c11.75-1.6,23.51-3.19,35.27-4.78c12.59-1.7,25.18-3.39,37.76-5.09
		c12.23-1.66,24.46-3.33,36.69-4.99c10.69-1.45,21.37-2.88,32.06-4.35c0.85-0.12,1.07,0.07,1.07,0.94
		c-0.02,26.06-0.02,52.12-0.02,78.19c0,0.44,0.16,0.94-0.61,1.02c-0.46,0.05-0.29,0.59-0.32,0.91c-0.63,8.94-2.76,17.52-6.75,25.53
		c-10.99,22.07-28.65,35.45-52.88,40.11c-2.87,0.55-5.82,0.53-8.68,1c-6.27,1.03-12.56,0.45-18.84,0.45
		c-95.3,0.06-190.59,0.04-285.89,0.04C78.18,452.38,77.71,452.38,76.97,452.38z"/>
</g>
</svg>
